<svg width="32" height="32" viewBox="0 0 32 32" fill="none" xmlns="http://www.w3.org/2000/svg">
  <!-- Background gradient -->
  <defs>
    <linearGradient id="logoGradient" x1="0%" y1="0%" x2="100%" y2="100%">
      <stop offset="0%" style="stop-color:#9333ea;stop-opacity:1" />
      <stop offset="50%" style="stop-color:#7e22ce;stop-opacity:1" />
      <stop offset="100%" style="stop-color:#6b21a8;stop-opacity:1" />
    </linearGradient>
  </defs>
  <rect width="32" height="32" rx="6" fill="url(#logoGradient)"/>
  
  <!-- Calm concentric circles - breathing effect -->
  <circle cx="16" cy="16" r="12" stroke="white" stroke-width="1.2" fill="none" opacity="0.25"/>
  <circle cx="16" cy="16" r="9" stroke="white" stroke-width="1" fill="none" opacity="0.35"/>
  
  <!-- Peaceful face - meditative -->
  <g opacity="0.95">
    <!-- Face circle - soft and calm -->
    <circle cx="16" cy="16" r="7" stroke="white" stroke-width="2" fill="none"/>
    <!-- Closed eyes - meditative state -->
    <path d="M 12 14 Q 14 14.5 16 14" stroke="white" stroke-width="1.8" stroke-linecap="round" fill="none"/>
    <path d="M 16 14 Q 18 14.5 20 14" stroke="white" stroke-width="1.8" stroke-linecap="round" fill="none"/>
    <!-- Gentle smile - peaceful -->
    <path d="M 12 18 Q 16 19.5 20 18" stroke="white" stroke-width="1.8" stroke-linecap="round" fill="none"/>
  </g>
  
  <!-- Breathing waves - calm energy -->
  <path d="M 4 16 Q 8 14 12 16 T 20 16 T 28 16" stroke="white" stroke-width="1.2" fill="none" opacity="0.4"/>
  <path d="M 6 16 Q 10 18 14 16 T 22 16 T 30 16" stroke="white" stroke-width="1" fill="none" opacity="0.3"/>
  
  <!-- Lotus petals - meditation symbol -->
  <circle cx="16" cy="6" r="1.2" fill="white" opacity="0.5"/>
  <circle cx="26" cy="11" r="1" fill="white" opacity="0.4"/>
  <circle cx="26" cy="21" r="1" fill="white" opacity="0.4"/>
  <circle cx="16" cy="26" r="1.2" fill="white" opacity="0.5"/>
  <circle cx="6" cy="21" r="1" fill="white" opacity="0.4"/>
  <circle cx="6" cy="11" r="1" fill="white" opacity="0.4"/>
</svg>

